<svg version="1.1" id="Layer_1" xmlns="http://www.w3.org/2000/svg" xmlns:xlink="http://www.w3.org/1999/xlink" x="0px" y="0px"
	 width="100%" viewBox="0 0 784 1024" enable-background="new 0 0 784 1024" xml:space="preserve">
<path fill="#000000" opacity="1.000000" stroke="none" 
	d="
M444.210724,516.579346 
	C508.649384,516.408936 572.611572,516.233887 636.573792,516.072144 
	C645.120972,516.050537 645.121033,516.081970 645.153320,524.550110 
	C645.194702,535.429382 645.194702,535.428101 634.366028,535.427368 
	C549.409485,535.421448 464.452911,535.416931 379.496338,535.409058 
	C370.716339,535.408264 370.621582,535.398132 370.721619,526.858765 
	C370.847839,516.082764 368.569122,516.086853 381.476501,516.109558 
	C387.140228,516.119507 392.839935,515.731934 398.456543,516.249512 
	C403.163635,516.683228 403.949615,514.900696 403.938385,510.693237 
	C403.818451,465.716583 403.870544,420.739441 403.892548,375.762451 
	C403.898285,364.052795 403.168121,364.982300 414.737915,364.931061 
	C423.262573,364.893280 423.260986,364.922913 423.261017,373.394989 
	C423.261292,419.038300 423.259857,464.681610 423.266541,510.324921 
	C423.267456,516.459961 423.508362,516.904358 429.770294,516.480896 
	C434.451965,516.164368 439.081482,516.536987 444.210724,516.579346 
z"/>
<path fill="#000000" opacity="1.000000" stroke="none" 
	d="
M292.618164,516.162598 
	C309.232880,516.176941 325.388947,516.157593 341.544830,516.199829 
	C343.636688,516.205261 344.659912,515.411133 344.637451,513.293152 
	C344.618011,511.460358 344.670227,509.626984 344.670258,507.793854 
	C344.670868,462.463196 344.665833,417.132568 344.670380,371.801910 
	C344.671082,364.977417 344.691376,364.897675 351.685608,364.934937 
	C365.358093,365.007812 363.870758,363.170013 363.880646,377.222107 
	C363.928772,445.717896 363.923767,514.213684 363.935883,582.709473 
	C363.937408,591.337158 363.932190,591.399719 355.580353,591.326782 
	C343.139923,591.218079 344.756622,592.818481 344.682037,580.433167 
	C344.606781,567.934387 344.674438,555.434753 344.666870,542.935486 
	C344.662292,535.425598 344.651459,535.415100 336.900330,535.414062 
	C307.402069,535.410217 277.903809,535.421875 248.405563,535.408264 
	C241.749802,535.405151 241.598251,535.366333 241.718979,528.749573 
	C241.958527,515.622314 238.877274,516.177673 254.162155,516.114380 
	C266.827667,516.061890 279.493683,516.132141 292.618164,516.162598 
z"/>
<path fill="#000000" opacity="1.000000" stroke="none" 
	d="
M404.765656,543.650513 
	C410.125946,541.945374 415.298340,542.880371 420.420197,542.643494 
	C422.596558,542.542786 423.230621,544.050903 423.230896,545.938599 
	C423.232849,559.754456 423.216003,573.570251 423.237457,587.386108 
	C423.241608,590.056641 422.088776,591.368469 419.340759,591.328186 
	C400.578735,591.052856 404.070801,593.929688 403.959473,577.395386 
	C403.884583,566.273499 403.149017,555.121948 404.765656,543.650513 
z"/>
</svg>