<svg version="1.1" id="Layer_1" xmlns="http://www.w3.org/2000/svg" xmlns:xlink="http://www.w3.org/1999/xlink" x="0px" y="0px"
	 width="100%" viewBox="0 0 1464 902" enable-background="new 0 0 1464 902" xml:space="preserve">
<path fill="#FEFEFE" opacity="1.000000" stroke="none" 
	d="
M853.000000,903.000000 
	C568.666687,903.000000 284.833344,903.000000 1.000000,903.000000 
	C1.000000,602.333313 1.000000,301.666656 1.000000,1.000000 
	C489.000000,1.000000 977.000000,1.000000 1465.000000,1.000000 
	C1465.000000,301.666656 1465.000000,602.333313 1465.000000,903.000000 
	C1261.166626,903.000000 1057.333374,903.000000 853.000000,903.000000 
M810.499329,646.040161 
	C995.978210,646.040222 1181.457031,646.040161 1366.935913,646.042114 
	C1369.102173,646.042114 1371.268677,646.085022 1373.434814,646.076172 
	C1376.498169,646.063660 1377.971680,644.590332 1377.961304,641.441833 
	C1377.907471,624.948364 1377.908203,608.454773 1377.914062,591.961182 
	C1377.915161,589.110962 1376.726929,587.552979 1373.723755,587.698853 
	C1372.227173,587.771484 1370.728394,587.841125 1369.230591,587.841064 
	C1136.089966,587.828979 902.949280,587.810608 669.808594,587.790283 
	C663.605164,587.789734 663.235901,587.460938 663.235413,581.384460 
	C663.222717,422.902069 663.193604,264.419647 663.337952,105.937401 
	C663.342407,101.025475 661.656006,100.034676 657.331604,100.081413 
	C642.335083,100.243500 627.335632,100.131935 612.337341,100.134552 
	C605.208069,100.135796 605.212708,100.146103 605.195618,107.464996 
	C605.190918,109.464455 605.127502,111.463829 605.127502,113.463242 
	C605.124756,251.947861 605.123474,390.432495 605.129089,528.917114 
	C605.129761,546.081787 605.175293,563.246460 605.186829,580.411133 
	C605.191711,587.626587 604.995911,587.807678 598.027954,587.806519 
	C566.198486,587.801208 534.368713,587.869263 502.540070,587.707825 
	C498.516998,587.687439 497.352203,588.920715 497.396820,592.836853 
	C497.575317,608.499695 497.612305,624.167603 497.396790,639.829346 
	C497.333038,644.463074 498.448303,646.192993 503.535065,646.184875 
	C605.522949,646.021729 707.511169,646.049866 810.499329,646.040161 
M327.500549,587.840820 
	C248.341583,587.842590 169.182617,587.846252 90.023651,587.843323 
	C81.591896,587.843018 81.616180,587.825195 81.624397,596.248718 
	C81.638870,611.079895 81.719582,625.912170 81.548561,640.741394 
	C81.503738,644.627563 82.706779,646.014709 86.715042,646.010559 
	C193.370941,645.899841 300.026947,645.891602 406.682922,645.860657 
	C413.376923,645.858704 413.324097,645.839050 413.319092,652.501709 
	C413.277039,708.495544 413.280884,764.489502 413.172791,820.483154 
	C413.165497,824.258362 414.249207,825.878784 418.265350,825.841614 
	C434.595428,825.690308 450.927887,825.732483 467.258942,825.812134 
	C470.241272,825.826660 471.533539,824.697998 471.493225,821.719849 
	C471.427826,816.888367 471.520264,812.055054 471.519989,807.222473 
	C471.506805,573.078552 471.480316,338.934662 471.563324,104.790787 
	C471.564728,100.800270 470.105225,100.022003 466.597046,100.055428 
	C451.933044,100.195168 437.266846,100.079521 422.602020,100.161797 
	C411.574799,100.223663 413.284241,99.117531 413.284515,109.375618 
	C413.288330,262.860809 413.297455,416.345978 413.303619,569.831177 
	C413.303802,574.163940 413.155121,578.501465 413.313049,582.828125 
	C413.454468,586.701721 411.953308,587.963928 407.992126,587.938904 
	C381.495789,587.771423 354.997955,587.845581 327.500549,587.840820 
M605.099365,759.500000 
	C605.122131,779.975708 605.204102,800.451599 605.112305,820.926819 
	C605.096069,824.539185 606.168030,825.890747 609.978333,825.849670 
	C625.957397,825.677246 641.940125,825.735718 657.920349,825.859802 
	C661.611023,825.888428 663.246521,824.914124 663.238159,820.786316 
	C663.141113,772.843323 663.186584,724.899963 663.285889,676.956909 
	C663.294312,672.887329 661.866882,671.421936 657.692139,671.467285 
	C641.880127,671.638977 626.063232,671.602661 610.251587,671.388855 
	C606.255493,671.334778 605.055115,672.703064 605.070862,676.598145 
	C605.181396,703.898376 605.111572,731.199280 605.099365,759.500000 
z"/>
<path fill="#060606" opacity="1.000000" stroke="none" 
	d="
M809.999329,646.039795 
	C707.511169,646.049866 605.522949,646.021729 503.535065,646.184875 
	C498.448303,646.192993 497.333038,644.463074 497.396790,639.829346 
	C497.612305,624.167603 497.575317,608.499695 497.396820,592.836853 
	C497.352203,588.920715 498.516998,587.687439 502.540070,587.707825 
	C534.368713,587.869263 566.198486,587.801208 598.027954,587.806519 
	C604.995911,587.807678 605.191711,587.626587 605.186829,580.411133 
	C605.175293,563.246460 605.129761,546.081787 605.129089,528.917114 
	C605.123474,390.432495 605.124756,251.947861 605.127502,113.463242 
	C605.127502,111.463829 605.190918,109.464455 605.195618,107.464996 
	C605.212708,100.146103 605.208069,100.135796 612.337341,100.134552 
	C627.335632,100.131935 642.335083,100.243500 657.331604,100.081413 
	C661.656006,100.034676 663.342407,101.025475 663.337952,105.937401 
	C663.193604,264.419647 663.222717,422.902069 663.235413,581.384460 
	C663.235901,587.460938 663.605164,587.789734 669.808594,587.790283 
	C902.949280,587.810608 1136.089966,587.828979 1369.230591,587.841064 
	C1370.728394,587.841125 1372.227173,587.771484 1373.723755,587.698853 
	C1376.726929,587.552979 1377.915161,589.110962 1377.914062,591.961182 
	C1377.908203,608.454773 1377.907471,624.948364 1377.961304,641.441833 
	C1377.971680,644.590332 1376.498169,646.063660 1373.434814,646.076172 
	C1371.268677,646.085022 1369.102173,646.042114 1366.935913,646.042114 
	C1181.457031,646.040161 995.978210,646.040222 809.999329,646.039795 
z"/>
<path fill="#050505" opacity="1.000000" stroke="none" 
	d="
M328.000549,587.841064 
	C354.997955,587.845581 381.495789,587.771423 407.992126,587.938904 
	C411.953308,587.963928 413.454468,586.701721 413.313049,582.828125 
	C413.155121,578.501465 413.303802,574.163940 413.303619,569.831177 
	C413.297455,416.345978 413.288330,262.860809 413.284515,109.375618 
	C413.284241,99.117531 411.574799,100.223663 422.602020,100.161797 
	C437.266846,100.079521 451.933044,100.195168 466.597046,100.055428 
	C470.105225,100.022003 471.564728,100.800270 471.563324,104.790787 
	C471.480316,338.934662 471.506805,573.078552 471.519989,807.222473 
	C471.520264,812.055054 471.427826,816.888367 471.493225,821.719849 
	C471.533539,824.697998 470.241272,825.826660 467.258942,825.812134 
	C450.927887,825.732483 434.595428,825.690308 418.265350,825.841614 
	C414.249207,825.878784 413.165497,824.258362 413.172791,820.483154 
	C413.280884,764.489502 413.277039,708.495544 413.319092,652.501709 
	C413.324097,645.839050 413.376923,645.858704 406.682922,645.860657 
	C300.026947,645.891602 193.370941,645.899841 86.715042,646.010559 
	C82.706779,646.014709 81.503738,644.627563 81.548561,640.741394 
	C81.719582,625.912170 81.638870,611.079895 81.624397,596.248718 
	C81.616180,587.825195 81.591896,587.843018 90.023651,587.843323 
	C169.182617,587.846252 248.341583,587.842590 328.000549,587.841064 
z"/>
<path fill="#070707" opacity="1.000000" stroke="none" 
	d="
M605.099426,759.000000 
	C605.111572,731.199280 605.181396,703.898376 605.070862,676.598145 
	C605.055115,672.703064 606.255493,671.334778 610.251587,671.388855 
	C626.063232,671.602661 641.880127,671.638977 657.692139,671.467285 
	C661.866882,671.421936 663.294312,672.887329 663.285889,676.956909 
	C663.186584,724.899963 663.141113,772.843323 663.238159,820.786316 
	C663.246521,824.914124 661.611023,825.888428 657.920349,825.859802 
	C641.940125,825.735718 625.957397,825.677246 609.978333,825.849670 
	C606.168030,825.890747 605.096069,824.539185 605.112305,820.926819 
	C605.204102,800.451599 605.122131,779.975708 605.099426,759.000000 
z"/>
</svg>