<svg version="1.1" id="Layer_1" xmlns="http://www.w3.org/2000/svg" xmlns:xlink="http://www.w3.org/1999/xlink" x="0px" y="0px"
	 width="100%" viewBox="0 0 826 512" enable-background="new 0 0 826 512" xml:space="preserve">
<path fill="#FEFEFE" opacity="1.000000" stroke="none" 
	d="
M579.000000,513.000000 
	C386.000031,513.000000 193.500076,513.000000 1.000077,513.000000 
	C1.000052,342.333405 1.000052,171.666794 1.000026,1.000146 
	C276.333221,1.000098 551.666443,1.000098 826.999756,1.000049 
	C826.999817,171.666519 826.999817,342.333038 826.999878,512.999756 
	C744.500000,513.000000 662.000000,513.000000 579.000000,513.000000 
M507.500000,316.025452 
	C467.511383,316.016510 427.522156,315.896912 387.534973,316.133728 
	C382.332397,316.164520 381.225861,314.723389 381.234833,309.744049 
	C381.387604,225.100540 381.342804,140.456665 381.341583,55.812878 
	C381.341553,54.027405 381.341583,52.241936 381.341583,50.297493 
	C370.570923,50.297493 360.333435,50.297493 349.700928,50.297493 
	C349.700928,53.585751 349.700653,56.553890 349.700958,59.522030 
	C349.709656,143.332672 349.696075,227.143356 349.799652,310.953888 
	C349.804352,314.765839 348.961121,316.174774 344.837097,316.113647 
	C328.678406,315.874054 312.514069,316.014801 296.351837,316.014252 
	C294.739471,316.014191 293.127106,316.014252 291.296478,316.014252 
	C291.296478,326.768555 291.296478,336.983307 291.296478,347.726227 
	C293.397736,347.726227 295.190491,347.726685 296.983246,347.726166 
	C325.641785,347.717865 354.300354,347.702118 382.958893,347.702271 
	C509.757965,347.703033 636.557007,347.708344 763.356079,347.712067 
	C764.189209,347.712097 765.036438,347.613647 765.853027,347.730103 
	C769.827271,348.296936 771.525513,347.036865 771.287354,342.624268 
	C770.901794,335.479980 770.910706,328.287659 771.260925,321.140472 
	C771.470398,316.865234 770.041138,315.927765 765.930298,315.933563 
	C680.120361,316.055023 594.310120,316.025360 507.500000,316.025452 
M245.078720,199.500000 
	C245.078720,238.247528 245.078720,276.995056 245.078720,316.012970 
	C243.050156,316.012970 241.903564,316.012939 240.756973,316.013000 
	C183.590912,316.014862 126.424690,316.074432 69.259132,315.904724 
	C64.871460,315.891724 63.921127,317.232025 64.090988,321.244507 
	C64.386787,328.232086 64.461868,335.256195 64.082977,342.235291 
	C63.843735,346.641968 65.116081,347.811890 69.582474,347.798492 
	C126.581184,347.627472 183.580551,347.670319 240.579758,347.677673 
	C241.988815,347.677856 243.397858,347.893616 245.236649,348.043976 
	C245.236649,380.790192 245.236649,413.035004 245.236649,445.425232 
	C255.930069,445.425232 266.143799,445.425232 276.510529,445.425232 
	C276.510529,313.490967 276.510529,181.924881 276.510529,50.291176 
	C265.928680,50.291176 255.690948,50.291176 245.078735,50.291176 
	C245.078735,99.918137 245.078735,149.209061 245.078720,199.500000 
M356.538452,361.718536 
	C354.441071,361.718536 352.343689,361.718536 350.113098,361.718536 
	C350.113098,390.027130 350.113098,417.715454 350.113098,445.467834 
	C360.621155,445.467834 370.707153,445.467834 380.908386,445.467834 
	C380.908386,417.450714 380.908386,389.743683 380.908386,361.719635 
	C372.835114,361.719635 365.184418,361.719635 356.538452,361.718536 
z"/>
<path fill="#060606" opacity="1.000000" stroke="none" 
	d="
M508.000000,316.025452 
	C594.310120,316.025360 680.120361,316.055023 765.930298,315.933563 
	C770.041138,315.927765 771.470398,316.865234 771.260925,321.140472 
	C770.910706,328.287659 770.901794,335.479980 771.287354,342.624268 
	C771.525513,347.036865 769.827271,348.296936 765.853027,347.730103 
	C765.036438,347.613647 764.189209,347.712097 763.356079,347.712067 
	C636.557007,347.708344 509.757965,347.703033 382.958893,347.702271 
	C354.300354,347.702118 325.641785,347.717865 296.983246,347.726166 
	C295.190491,347.726685 293.397736,347.726227 291.296478,347.726227 
	C291.296478,336.983307 291.296478,326.768555 291.296478,316.014252 
	C293.127106,316.014252 294.739471,316.014191 296.351837,316.014252 
	C312.514069,316.014801 328.678406,315.874054 344.837097,316.113647 
	C348.961121,316.174774 349.804352,314.765839 349.799652,310.953888 
	C349.696075,227.143356 349.709656,143.332672 349.700958,59.522030 
	C349.700653,56.553890 349.700928,53.585751 349.700928,50.297493 
	C360.333435,50.297493 370.570923,50.297493 381.341583,50.297493 
	C381.341583,52.241936 381.341553,54.027405 381.341583,55.812878 
	C381.342804,140.456665 381.387604,225.100540 381.234833,309.744049 
	C381.225861,314.723389 382.332397,316.164520 387.534973,316.133728 
	C427.522156,315.896912 467.511383,316.016510 508.000000,316.025452 
M583.500000,318.997559 
	C644.892029,318.997559 706.284119,318.997559 767.676147,318.997559 
	C767.675171,318.761444 767.674133,318.525299 767.673096,318.289185 
	C641.157715,318.289185 514.642273,318.289185 388.126862,318.289185 
	C388.126709,318.525299 388.126556,318.761444 388.126404,318.997559 
	C452.917603,318.997559 517.708801,318.997559 583.500000,318.997559 
z"/>
<path fill="#070707" opacity="1.000000" stroke="none" 
	d="
M245.078735,199.000000 
	C245.078735,149.209061 245.078735,99.918137 245.078735,50.291176 
	C255.690948,50.291176 265.928680,50.291176 276.510529,50.291176 
	C276.510529,181.924881 276.510529,313.490967 276.510529,445.425232 
	C266.143799,445.425232 255.930069,445.425232 245.236649,445.425232 
	C245.236649,413.035004 245.236649,380.790192 245.236649,348.043976 
	C243.397858,347.893616 241.988815,347.677856 240.579758,347.677673 
	C183.580551,347.670319 126.581184,347.627472 69.582474,347.798492 
	C65.116081,347.811890 63.843735,346.641968 64.082977,342.235291 
	C64.461868,335.256195 64.386787,328.232086 64.090988,321.244507 
	C63.921127,317.232025 64.871460,315.891724 69.259132,315.904724 
	C126.424690,316.074432 183.590912,316.014862 240.756973,316.013000 
	C241.903564,316.012939 243.050156,316.012970 245.078720,316.012970 
	C245.078720,276.995056 245.078720,238.247528 245.078735,199.000000 
M274.001221,294.500000 
	C274.001221,342.225220 274.001221,389.950409 274.001221,437.675629 
	C274.237946,437.674347 274.474701,437.673035 274.711426,437.671753 
	C274.711426,309.823547 274.711426,181.975311 274.711426,54.127094 
	C274.474701,54.126995 274.237946,54.126896 274.001221,54.126797 
	C274.001221,133.917862 274.001221,213.708939 274.001221,294.500000 
M247.998169,231.500000 
	C247.998169,180.441177 247.998169,129.382339 247.998169,78.323517 
	C247.761475,78.324768 247.524780,78.326019 247.288086,78.327271 
	C247.288086,154.842819 247.288086,231.358368 247.288086,307.873901 
	C247.524780,307.874451 247.761475,307.875000 247.998169,307.875549 
	C247.998169,282.750366 247.998169,257.625183 247.998169,231.500000 
M271.435150,443.080994 
	C268.367279,443.080994 265.299408,443.080994 262.231537,443.080994 
	C262.249603,443.433990 262.267670,443.786987 262.285736,444.139984 
	C265.511963,443.946655 268.738220,443.753357 271.435150,443.080994 
M247.019440,354.930603 
	C247.107559,355.638184 247.195679,356.345764 247.283798,357.053314 
	C247.570770,357.016266 247.857742,356.979218 248.144699,356.942169 
	C247.794769,356.078705 247.444855,355.215271 247.019440,354.930603 
M247.080872,53.520355 
	C247.225662,53.764095 247.370438,54.007835 247.515213,54.251575 
	C247.649368,54.000259 247.944153,53.685913 247.876602,53.513748 
	C247.794159,53.303665 247.407364,53.213005 247.080872,53.520355 
M247.081253,312.520660 
	C247.225616,312.764069 247.369980,313.007477 247.514359,313.250885 
	C247.648071,312.999939 247.941650,312.686859 247.874466,312.513977 
	C247.793137,312.304657 247.406708,312.213837 247.081253,312.520660 
z"/>
<path fill="#040404" opacity="1.000000" stroke="none" 
	d="
M357.036102,361.719086 
	C365.184418,361.719635 372.835114,361.719635 380.908386,361.719635 
	C380.908386,389.743683 380.908386,417.450714 380.908386,445.467834 
	C370.707153,445.467834 360.621155,445.467834 350.113098,445.467834 
	C350.113098,417.715454 350.113098,390.027130 350.113098,361.718536 
	C352.343689,361.718536 354.441071,361.718536 357.036102,361.719086 
z"/>
<path fill="#0D0D0D" opacity="1.000000" stroke="none" 
	d="
M583.000000,318.997559 
	C517.708801,318.997559 452.917603,318.997559 388.126404,318.997559 
	C388.126556,318.761444 388.126709,318.525299 388.126862,318.289185 
	C514.642273,318.289185 641.157715,318.289185 767.673096,318.289185 
	C767.674133,318.525299 767.675171,318.761444 767.676147,318.997559 
	C706.284119,318.997559 644.892029,318.997559 583.000000,318.997559 
z"/>
<path fill="#0B0B0B" opacity="1.000000" stroke="none" 
	d="
M274.001221,294.000000 
	C274.001221,213.708939 274.001221,133.917862 274.001221,54.126797 
	C274.237946,54.126896 274.474701,54.126995 274.711426,54.127094 
	C274.711426,181.975311 274.711426,309.823547 274.711426,437.671753 
	C274.474701,437.673035 274.237946,437.674347 274.001221,437.675629 
	C274.001221,389.950409 274.001221,342.225220 274.001221,294.000000 
z"/>
<path fill="#0B0B0B" opacity="1.000000" stroke="none" 
	d="
M247.998169,232.000000 
	C247.998169,257.625183 247.998169,282.750366 247.998169,307.875549 
	C247.761475,307.875000 247.524780,307.874451 247.288086,307.873901 
	C247.288086,231.358368 247.288086,154.842819 247.288086,78.327271 
	C247.524780,78.326019 247.761475,78.324768 247.998169,78.323517 
	C247.998169,129.382339 247.998169,180.441177 247.998169,232.000000 
z"/>
<path fill="#0B0B0B" opacity="1.000000" stroke="none" 
	d="
M271.699829,443.320526 
	C268.738220,443.753357 265.511963,443.946655 262.285736,444.139984 
	C262.267670,443.786987 262.249603,443.433990 262.231537,443.080994 
	C265.299408,443.080994 268.367279,443.080994 271.699829,443.320526 
z"/>
<path fill="#0B0B0B" opacity="1.000000" stroke="none" 
	d="
M247.057190,354.641235 
	C247.444855,355.215271 247.794769,356.078705 248.144699,356.942169 
	C247.857742,356.979218 247.570770,357.016266 247.283798,357.053314 
	C247.195679,356.345764 247.107559,355.638184 247.057190,354.641235 
z"/>
<path fill="#0B0B0B" opacity="1.000000" stroke="none" 
	d="
M247.116547,53.295525 
	C247.407364,53.213005 247.794159,53.303665 247.876602,53.513748 
	C247.944153,53.685913 247.649368,54.000259 247.515213,54.251575 
	C247.370438,54.007835 247.225662,53.764095 247.116547,53.295525 
z"/>
<path fill="#0B0B0B" opacity="1.000000" stroke="none" 
	d="
M247.116791,312.296204 
	C247.406708,312.213837 247.793137,312.304657 247.874466,312.513977 
	C247.941650,312.686859 247.648071,312.999939 247.514343,313.250885 
	C247.369980,313.007477 247.225616,312.764069 247.116791,312.296204 
z"/>
</svg>